<svg xmlns="http://www.w3.org/2000/svg" width="24" height="24" viewBox="0 0 24 24">
  <g id="Сгруппировать_80" data-name="Сгруппировать 80" transform="translate(-225 -64)">
    <circle id="Эллипс_91" data-name="Эллипс 91" cx="12" cy="12" r="12" transform="translate(225 64)" fill="#fff"/>
    <path id="Контур_3103" data-name="Контур 3103" d="M242,78.71v1.768a.5.5,0,0,1-.465.5c-.219.015-.4.023-.535.023a8,8,0,0,1-8-8c0-.138.007-.316.023-.535a.5.5,0,0,1,.5-.465h1.768a.25.25,0,0,1,.249.225c.011.115.022.207.032.276a6.939,6.939,0,0,0,.6,2,.229.229,0,0,1-.074.284l-1.079.771a6.525,6.525,0,0,0,3.422,3.422l.77-1.077a.235.235,0,0,1,.13-.089.232.232,0,0,1,.157.015,6.938,6.938,0,0,0,2,.6c.069.01.161.021.275.032a.249.249,0,0,1,.224.249Z" fill="#3485d6"/>
  </g>
</svg>
