<svg xmlns="http://www.w3.org/2000/svg" width="24" height="24" viewBox="0 0 24 24">
  <g id="Сгруппировать_79" data-name="Сгруппировать 79" transform="translate(-90 -64)">
    <circle id="Эллипс_92" data-name="Эллипс 92" cx="12" cy="12" r="12" transform="translate(90 64)" fill="#fff"/>
    <path id="Контур_3102" data-name="Контур 3102" d="M102.5,84a7.5,7.5,0,1,1,7.5-7.5A7.5,7.5,0,0,1,102.5,84Zm-1.717-1.75a13.423,13.423,0,0,1-1.263-5H96.547a6.005,6.005,0,0,0,4.236,5Zm.239-5a11.954,11.954,0,0,0,1.478,5.064,11.941,11.941,0,0,0,1.478-5.064Zm7.431,0H105.48a13.431,13.431,0,0,1-1.263,5,6,6,0,0,0,4.236-5Zm-11.907-1.5H99.52a13.423,13.423,0,0,1,1.263-5,6.005,6.005,0,0,0-4.236,5Zm4.477,0h2.954a11.926,11.926,0,0,0-1.477-5.064,11.941,11.941,0,0,0-1.478,5.064Zm3.194-5a13.431,13.431,0,0,1,1.263,5h2.973a6,6,0,0,0-4.236-5Z" fill="#3485d6"/>
  </g>
</svg>
